<svg width="920" height="360" viewBox="0 0 920 360" fill="none" xmlns="http://www.w3.org/2000/svg">
  <rect width="920" height="360" rx="20" fill="#08080A"/>
  <g opacity=".42">
    <path d="M0 72.5H920M0 144.5H920M0 216.5H920M0 288.5H920" stroke="white" stroke-opacity=".07"/>
    <path d="M92.5 0V360M184.5 0V360M276.5 0V360M368.5 0V360M460.5 0V360M552.5 0V360M644.5 0V360M736.5 0V360M828.5 0V360" stroke="white" stroke-opacity=".07"/>
  </g>
  <circle cx="460" cy="180" r="190" fill="url(#workflowGlow)" opacity=".8"/>

  <path d="M116 180H804" stroke="white" stroke-opacity=".16" stroke-width="5" stroke-linecap="round"/>
  <path d="M214 180H324M420 180H500M596 180H706" stroke="#64D2FF" stroke-opacity=".48" stroke-width="5" stroke-linecap="round"/>

  <rect x="72" y="104" width="152" height="152" rx="18" fill="#0D0D10" stroke="white" stroke-opacity=".16"/>
  <rect x="92" y="126" width="112" height="86" rx="10" fill="#050607" stroke="#64D2FF" stroke-opacity=".35"/>
  <path d="M112 154H164M112 178H184M112 202H148" stroke="white" stroke-opacity=".35" stroke-width="8" stroke-linecap="round"/>
  <path d="M108 230H188" stroke="#7CFFB2" stroke-opacity=".46" stroke-width="8" stroke-linecap="round"/>

  <rect x="280" y="104" width="152" height="152" rx="18" fill="#0D0D10" stroke="white" stroke-opacity=".16"/>
  <circle cx="356" cy="180" r="48" fill="#081216" stroke="#64D2FF" stroke-opacity=".65" stroke-width="4"/>
  <path d="M332 180H380M356 156V204" stroke="#7CFFB2" stroke-opacity=".76" stroke-width="7" stroke-linecap="round"/>
  <path d="M316 226H396" stroke="white" stroke-opacity=".28" stroke-width="8" stroke-linecap="round"/>

  <rect x="488" y="96" width="160" height="168" rx="20" fill="#0E1415" stroke="#7CFFB2" stroke-opacity=".36"/>
  <rect x="526" y="130" width="84" height="84" rx="12" fill="#050607" stroke="#64D2FF" stroke-opacity=".48"/>
  <path d="M568 104V130M568 214V240M500 172H526M610 172H636" stroke="white" stroke-opacity=".28" stroke-width="4" stroke-linecap="round"/>
  <path d="M546 172H590M546 194H578" stroke="white" stroke-opacity=".34" stroke-width="8" stroke-linecap="round"/>

  <rect x="704" y="104" width="152" height="152" rx="18" fill="#0D0D10" stroke="white" stroke-opacity=".16"/>
  <path d="M734 204C744 164 762 144 790 144C818 144 836 164 846 204" stroke="#64D2FF" stroke-opacity=".56" stroke-width="7" stroke-linecap="round"/>
  <path d="M744 204H836" stroke="white" stroke-opacity=".28" stroke-width="7" stroke-linecap="round"/>
  <circle cx="790" cy="204" r="9" fill="#7CFFB2"/>
  <path d="M738 230H842" stroke="white" stroke-opacity=".28" stroke-width="8" stroke-linecap="round"/>

  <g fill="#7CFFB2" fill-opacity=".54">
    <circle cx="252" cy="180" r="9"/>
    <circle cx="460" cy="180" r="9"/>
    <circle cx="676" cy="180" r="9"/>
  </g>

  <defs>
    <radialGradient id="workflowGlow" cx="0" cy="0" r="1" gradientUnits="userSpaceOnUse" gradientTransform="translate(460 180) rotate(90) scale(190)">
      <stop stop-color="#64D2FF" stop-opacity=".22"/>
      <stop offset="1" stop-color="#64D2FF" stop-opacity="0"/>
    </radialGradient>
  </defs>
</svg>
